<svg xmlns="http://www.w3.org/2000/svg" viewBox="0 0 320 180" role="img" aria-label="SUV">
  <rect width="320" height="180" fill="none" />
  <g transform="translate(26,32)">
    <path d="M30 90h18l14-34c4-10 14-16 25-16h104c17 0 28 5 40 16l18 18h20c10 0 18 8 18 18v18H30z" fill="#f4c145" stroke="#1f2937" stroke-width="6" stroke-linejoin="round"/>
    <path d="M96 46h40v28H80l7-18c2-6 5-10 9-10z" fill="#93c5fd" stroke="#1f2937" stroke-width="5" stroke-linejoin="round"/>
    <path d="M146 46h38c12 0 20 4 29 12l12 12h-79z" fill="#93c5fd" stroke="#1f2937" stroke-width="5" stroke-linejoin="round"/>
    <circle cx="88" cy="110" r="20" fill="#111827"/>
    <circle cx="88" cy="110" r="9" fill="#d1d5db"/>
    <circle cx="226" cy="110" r="20" fill="#111827"/>
    <circle cx="226" cy="110" r="9" fill="#d1d5db"/>
  </g>
</svg>
